<?xml version="1.0" encoding="utf-8"?>
<!-- Generator: Adobe Illustrator 26.0.1, SVG Export Plug-In . SVG Version: 6.00 Build 0)  -->
<svg version="1.1" id="Capa_1" xmlns="http://www.w3.org/2000/svg" xmlns:xlink="http://www.w3.org/1999/xlink" x="0px" y="0px"
	 viewBox="0 0 150 150" style="enable-background:new 0 0 150 150;" xml:space="preserve">
<style type="text/css">
	.st0{fill:#FFFFFF;}
</style>
<path class="st0" d="M94,42c1.1,0.5,1.7,1.3,2.1,2.5c1.1,3.1,2.2,6.1,3.3,9.2c0.6,1.5,0.3,2.5-1,3.6c-1.7,1.4-3.4,2.7-5.2,4.2
	c0.4,0,0.7,0,0.9,0c2.8,0,5.6,0,8.4,0c1.9,0,3.1,1.1,3.1,3.1c0,3.7,0,7.4,0,11.2c0,1.9-1.2,3-3.1,3c-0.6,0-1.2,0-2,0
	c0,1,0,2.1,0,3.1c0,0.1,0.1,0.2,0.3,0.3c1.9,1.3,2.7,3.3,3.2,5.5c0.8,3.6,0.5,7.2-0.1,10.8c-0.2,1-1.1,1.7-2.2,1.7
	c-0.3,0-0.7,0-1.1,0c0,0.3,0,0.5,0,0.8c0,3.8,0,7.6,0,11.5c0,2.1-1.3,3.5-3.5,3.5c-16,0-32,0-48.1,0c-2.2,0-3.5-1.3-3.5-3.6
	c0-10.9,0-21.7,0-32.6c0-0.3,0-0.6,0-0.9c-0.7,0-1.4,0-2.1,0c-1.8,0-3-1.2-3-3c0-3.8,0-7.6,0-11.4c0-1.8,1.2-2.9,2.9-2.9
	c2.8,0,5.7,0,8.5,0c0.2,0,0.5,0,0.9,0c-1.5-1.2-2.9-2.4-4.3-3.5c-0.4-0.4-0.9-0.7-1.3-1.1c-0.9-0.8-1.1-1.8-0.7-2.9
	c1.2-3.4,2.5-6.8,3.7-10.3c0.3-0.9,1-1.4,1.8-1.7c0.5,0,1,0,1.4,0c1.8,0.6,3.5,1.3,5.3,1.9c3.4,1.1,5.9,3.2,7.6,6.3
	c0.4,0.7,0.8,1.5,1.2,2.2c3.3-3,7.8-3,10.9,0c0.6-1,1.1-2,1.7-3c1.3-2.1,3-3.7,5.3-4.8c0.4-0.2,1-0.1,1.3,0.1
	c0.2,0.1,0.4,0.7,0.3,1.1c-0.1,0.3-0.5,0.7-0.8,0.8c-1.3,0.7-2.6,1.5-3.4,2.7c-1.1,1.6-2,3.2-2.9,4.9c-0.1,0.1-0.1,0.3,0,0.5
	c0.7,1.6,0.6,3.3,0.6,5c0,0.4,0.1,0.7,0.2,1.1c0.4-0.1,0.8-0.2,1.1-0.4c1.3-0.8,2.5-1.7,3.8-2.5c1.5-1,3.2-1.6,5-1.8
	c2-0.2,4.1-0.5,6.1-0.7c0.5-0.1,0.8-0.3,0.6-0.8c-1.2-3.3-2.4-6.6-3.6-9.9c-0.2-0.4-0.4-0.6-0.9-0.4c-0.6,0.2-1.2,0.4-1.8,0.6
	c-0.7,0.2-1.3,0-1.6-0.6c-0.2-0.6,0.1-1.2,0.9-1.5c0.7-0.3,1.4-0.5,2.1-0.8C93.1,42,93.6,42,94,42z M64.1,113.6c0-0.4,0-0.7,0-0.9
	c0-8.8,0-17.6,0-26.4c0-0.3,0-0.6,0.1-0.9c0.1-0.5,0.5-0.8,1.1-0.8c0.5,0,0.9,0.3,1,0.8c0.1,0.3,0.1,0.6,0.1,0.9
	c0,8.8,0,17.5,0,26.3c0,0.3,0,0.6,0,0.9c4.5,0,8.9,0,13.3,0c0-11.6,0-23.2,0-34.8c-4.4,0-8.8,0-13.3,0c0,0.5,0,1,0,1.5
	c0,0.7-0.5,1.2-1.1,1.2c-0.6,0-1.1-0.5-1.1-1.2c0-0.5,0-0.9,0-1.4c-5.5,0-11,0-16.5,0c0,0.2,0,0.4,0,0.5c0,11,0,21.9,0,32.9
	c0,1.1,0.4,1.4,1.5,1.4c3.3,0,6.7,0,10,0C60.8,113.6,62.4,113.6,64.1,113.6z M82,78.7c0,11.7,0,23.3,0,34.9c0.3,0,0.5,0,0.8,0
	c4.7,0,9.4,0,14.1,0c1.2,0,1.6-0.3,1.6-1.6c0-3.8,0-7.6,0-11.4c0-0.2,0-0.5,0-0.7c-1.1-0.2-2.1-0.3-3.1-0.5c-2.5-0.5-5-1.2-7-2.9
	c-1.9-1.6-2.8-3.6-2.2-6.1c0.5-2.2,2-3.8,4.2-4.2c1.2-0.2,1.7-0.7,2-1.8c0.5-1.5,0.7-3,0.3-4.6c-0.3-1.2-0.3-1.2-1.6-1.2
	c-1.7,0-3.4,0-5,0C84.6,78.7,83.3,78.7,82,78.7z M64.1,63.7c-0.2,0-0.3,0-0.4,0c-6.7,0-13.4,0-20.1,0c-0.8,0-0.9,0.2-0.9,1
	c0,3.6,0,7.1,0,10.7c0,1.1,0.1,1.2,1.2,1.2c6.5,0,13,0,19.5,0c0.3,0,0.5,0,0.8,0C64.1,72.2,64.1,68,64.1,63.7z M89.6,76.5
	c-0.2-0.1-0.2-0.2-0.3-0.2c-2.9-1.7-4.2-4.3-4-7.6c0.1-1.8-0.6-3.4-2.1-4.5c-0.3-0.3-0.9-0.4-1.3-0.4c-4.9,0-9.8,0-14.8,0
	c-0.3,0-0.5,0-0.8,0c0,4.3,0,8.6,0,12.9c4.4,0,8.8,0,13.3,0c0-0.3,0-0.6,0-0.8c0-2.2,0-4.4,0-6.6c0-0.6,0.1-1.2,0.8-1.3
	c0.8-0.2,1.4,0.3,1.4,1.3c0,2.2,0,4.4,0,6.6c0,0.3,0,0.5,0,0.8C84.5,76.5,87,76.5,89.6,76.5z M85.9,63.7c1.4,1.9,1.7,3.8,1.7,6
	c-0.1,2.2,1.1,3.7,2.9,4.8c0.9,0.5,1.7,1.2,2.6,1.8c0.2,0.2,0.5,0.3,0.8,0.3c2.8,0,5.7,0,8.5,0c0.9,0,1.1-0.2,1.1-1.1
	c0-3.6,0-7.1,0-10.7c0-1-0.1-1.1-1.2-1.1c-5.2,0-10.4,0-15.5,0C86.5,63.7,86.3,63.7,85.9,63.7z M65.4,61.3c0-0.7,0-1.2,0-1.7
	c0-1.7-0.1-3.4,0.6-5c0.1-0.2,0-0.5-0.1-0.7c-0.6-1.1-1.2-2.2-1.8-3.3c-1.2-2.1-3-3.6-5.2-4.4c-1.9-0.7-3.9-1.3-5.8-2
	c-0.5-0.2-0.7,0-0.9,0.4c-1.2,3.3-2.4,6.6-3.6,9.9c-0.2,0.5,0,0.8,0.5,0.9c1.4,0.1,2.7,0.3,4.1,0.4c2.9,0.2,5.7,0.9,8.1,2.7
	C62.6,59.5,63.9,60.3,65.4,61.3z M101.6,97.9c0.1-0.2,0.1-0.3,0.2-0.5c0.4-2.6,0.6-5.2,0.3-7.9c-0.2-1.6-0.6-3.2-1.5-4.5
	c-0.9-1.3-2.5-2-4-1.6c-1.5,0.4-2.5,1.7-2.6,3.4c-0.1,1.2-0.5,1.6-1.7,1.5c-1.6-0.2-3,0.5-3.7,1.9c-0.7,1.4-0.5,3.1,0.7,4.2
	c0.6,0.6,1.4,1.2,2.2,1.6C94.6,97.5,98.1,97.8,101.6,97.9z M67.8,61.5c3.1,0,6.2,0,9.4,0c0.1,0,0.3,0,0.4-0.1c0.4-0.7,1-1.3,0.8-2.2
	c-0.1-0.5,0-1.1,0-1.6c0-2.6-2.1-4.9-4.6-5.2c-2.8-0.3-5.5,1.4-5.9,4.1C67.6,58,67.8,59.7,67.8,61.5z M52,58c1.4,1.2,2.7,2.2,4,3.3
	c0.1,0.1,0.3,0.2,0.4,0.2c1.7,0,3.3,0,5.1,0C58.8,59,55.7,58,52,58z M84.5,61.5c0.8,0,1.5-0.1,2.1,0c2.2,0.3,4.1-0.4,5.6-2
	c0.5-0.5,1.1-0.9,1.7-1.4C90.3,58,87.2,59,84.5,61.5z M94.6,78.8c0.2,0.9,0.3,1.9,0.5,2.7c1.1-0.2,2.1-0.3,3.2-0.5
	c0-0.7,0-1.4,0-2.2C97.1,78.8,95.8,78.8,94.6,78.8z"/>
</svg>
