<?xml version="1.0" encoding="utf-8"?>
<!-- Generator: Adobe Illustrator 26.0.1, SVG Export Plug-In . SVG Version: 6.00 Build 0)  -->
<svg version="1.1" id="Capa_1" xmlns="http://www.w3.org/2000/svg" xmlns:xlink="http://www.w3.org/1999/xlink" x="0px" y="0px"
	 viewBox="0 0 150 150" style="enable-background:new 0 0 150 150;" xml:space="preserve">
<path d="M34.4,108.9c0.4-0.6,0.9-0.8,1.7-0.8c1,0,2.1,0,3.2,0c0-8,0-16,0-24.1c-0.5,0.2-0.9,0.3-1.3,0.5c-0.9,0.3-1.5,0.1-1.8-0.7
	c-0.3-0.7,0.1-1.3,0.9-1.6c5.8-2.1,11.6-4.2,17.5-6.4c0.8-0.3,1.5,0,1.7,0.7c0.3,0.7-0.1,1.3-0.9,1.6c-3.5,1.3-6.9,2.5-10.4,3.8
	c-0.9,0.3-1.8,0.6-2.6,1c-0.2,0.1-0.5,0.4-0.5,0.6c0,8.1,0,16.3,0,24.5c5.6,0,11.2,0,16.9,0c0-12,0-23.9,0-36.1
	c-0.4,0.4-0.7,0.7-1,0.9c-0.4,0.2-1,0.4-1.3,0.3c-0.4-0.2-0.8-0.7-0.8-1.1c-0.1-2.1-0.1-4.3,0-6.4c0-0.4,0.4-0.9,0.7-1.2
	c5.4-4.9,10.8-9.9,16.2-14.8c0.6-0.5,0.9-1.1,0.9-1.9c-0.1-1.1,0-2.3,0-3.6c-0.6,0-1.2,0-1.7,0c-0.9,0-1.5-0.5-1.5-1.3
	c0-0.7,0.6-1.2,1.5-1.2c0.5,0,1,0,1.5,0c0,0,0.1,0,0.2-0.1c0-0.4,0-0.8,0-1.2c0-1.5,0.4-2.1,1.2-2.2c0.9,0,1.3,0.6,1.3,2.2
	c0,0.4,0,0.8,0,1.2c0.7,0,1.3,0,1.9,0c0.8,0,1.4,0.5,1.4,1.2c0,0.7-0.5,1.2-1.3,1.3c-0.6,0-1.2,0-1.9,0c0,1.5,0,3,0,4.5
	c0,0.2,0.3,0.5,0.5,0.6c5.4,5,10.9,9.9,16.4,14.9c0.7,0.6,1,1.2,1,2.1c-0.1,1.8,0,3.6,0,5.4c0,0.7-0.1,1.2-0.8,1.5
	c-0.6,0.3-1.1-0.1-1.5-0.5c-0.2-0.2-0.5-0.5-0.8-0.8c0,12.1,0,24.1,0,36.1c5.6,0,11.2,0,16.9,0c0-0.3,0-0.5,0-0.8
	c0-7.8,0-15.6,0-23.4c0-0.6-0.2-0.8-0.7-1c-4.1-1.5-8.2-3-12.3-4.5c-0.2-0.1-0.4-0.1-0.7-0.2c-0.7-0.3-1-0.9-0.8-1.6
	c0.3-0.7,0.9-1,1.7-0.7c3.4,1.2,6.8,2.5,10.2,3.7c2.4,0.9,4.8,1.7,7.2,2.6c0.4,0.1,0.8,0.3,0.9,0.6c0.1,0.4,0.1,1,0,1.4
	c-0.2,0.5-0.8,0.6-1.4,0.4c-0.5-0.1-1-0.3-1.6-0.5c0,8,0,16,0,24.1c1.1,0,2.1,0,3.2,0c0.7,0,1.3,0.2,1.7,0.8c0,0.3,0,0.6,0,0.9
	c-0.4,0.6-1,0.8-1.8,0.8c-25.6,0-51.2,0-76.7,0c-0.7,0-1.3-0.2-1.8-0.8C34.4,109.5,34.4,109.2,34.4,108.9z M74.5,57.5
	c-0.2,0.2-0.4,0.3-0.6,0.5c-4.1,3.7-8.2,7.5-12.3,11.2c-0.2,0.2-0.4,0.7-0.4,1c0,12.4,0,24.8,0,37.1c0,0.2,0,0.4,0,0.7
	c1.9,0,3.7,0,5.6,0c0-0.3,0-0.6,0-0.9c0-3.4,0-6.9,0-10.3c0-0.8,0-1.6,0.2-2.3c0.9-3.7,4.4-6.2,8.3-5.8c3.8,0.3,6.8,3.6,6.9,7.4
	c0.1,3.7,0,7.4,0,11.1c0,0.3,0,0.6,0,0.8c1.9,0,3.8,0,5.6,0c0-0.2,0-0.3,0-0.4c0-12.5,0-25,0-37.5c0-0.3-0.2-0.7-0.5-1
	c-1.7-1.6-3.4-3.1-5-4.6C79.7,62.2,77.2,59.9,74.5,57.5z M91.1,69.2c0-0.9,0-1.5,0-2.2c0.1-0.7-0.2-1.1-0.7-1.5
	c-4.2-3.8-8.4-7.6-12.5-11.4c-1.1-1-2.3-2.1-3.4-3.1c-1.1,1-2.1,1.9-3.1,2.8c-4.3,3.9-8.7,7.9-13,11.8c-0.2,0.2-0.5,0.5-0.5,0.7
	c-0.1,0.9,0,1.8,0,2.8c0.3-0.3,0.5-0.4,0.7-0.6c4.9-4.5,9.9-9,14.8-13.4c0.9-0.8,1.4-0.8,2.2,0c2.2,2,4.4,4,6.6,6
	C85.1,63.8,88,66.4,91.1,69.2z M73.2,91.3c-0.2,0-0.3,0-0.4,0.1c-2.2,0.7-3.5,2.6-3.5,5.1c0,3.7,0,7.3,0,11c0,0.2,0,0.4,0.1,0.6
	c1.3,0,2.6,0,3.9,0C73.2,102.4,73.2,96.9,73.2,91.3z M79.7,108c0-0.9,0-1.8,0-2.6c0-3.2,0-6.4-0.1-9.6c-0.1-2.1-1.9-4.1-3.9-4.4
	c0,5.6,0,11.1,0,16.7C77.1,108,78.4,108,79.7,108z"/>
<path d="M94.4,94.5c0-1.7-0.1-3.3,0-5c0.1-2.2,1.7-3.8,3.9-4.1c1.9-0.3,3.9,0.9,4.6,2.8c0.2,0.6,0.3,1.3,0.4,1.9c0,3,0,6.1,0,9.1
	c0,1.2-0.5,1.7-1.6,1.7c-1.9,0-3.8,0-5.7,0c-1.2,0-1.6-0.4-1.6-1.6C94.3,97.6,94.4,96.1,94.4,94.5C94.4,94.5,94.4,94.5,94.4,94.5z
	 M100.8,98.3c0-2.9,0-5.8,0-8.6c0-1-0.8-1.7-1.7-1.9c-0.8-0.1-1.7,0.3-2.1,1.1c-0.2,0.4-0.2,0.9-0.2,1.3c0,2.5,0,5,0,7.4
	c0,0.2,0,0.4,0.1,0.6C98.2,98.3,99.5,98.3,100.8,98.3z"/>
<path d="M54.7,94.5c0,1.6,0,3.2,0,4.8c0,1.2-0.4,1.6-1.6,1.6c-1.9,0-3.9,0-5.8,0c-1,0-1.5-0.5-1.5-1.5c0-3.1,0-6.3,0-9.4
	c0-2.4,1.7-4.2,4.1-4.5c2.1-0.3,4.1,1.2,4.7,3.3c0.1,0.5,0.2,1,0.2,1.5C54.7,91.6,54.7,93.1,54.7,94.5z M52.2,98.3
	c0-2.7,0-5.3,0-7.8c0-0.2,0-0.5,0-0.7c-0.1-0.7-0.3-1.3-0.9-1.6c-0.7-0.4-1.3-0.4-2-0.1c-0.7,0.4-1.1,1.1-1.1,1.9c0,2.6,0,5.2,0,7.8
	c0,0.2,0,0.3,0.1,0.5C49.6,98.3,50.8,98.3,52.2,98.3z"/>
<path d="M82.2,73.7c0,1.3-0.5,2.5-1.4,3.5c-1.7,1.8-3.5,3.6-5.3,5.3c-0.7,0.7-1.3,0.7-2,0c-1.8-1.8-3.6-3.5-5.3-5.3
	c-1.7-1.8-1.9-4.5-0.5-6.4c1.5-2,4-2.6,6.3-1.6c0.3,0.1,0.7,0.1,1,0C78.4,67.6,82.2,70,82.2,73.7z M74.5,79.9
	c1.6-1.6,3.2-3.1,4.7-4.6c0.8-0.9,0.7-2.4-0.1-3.3c-0.9-0.9-2.3-1.1-3.3-0.4c-1.2,0.8-1.2,0.8-2.4,0c-1.1-0.8-2.5-0.6-3.4,0.4
	c-0.8,0.9-0.9,2.4,0,3.4C71.4,76.9,72.9,78.4,74.5,79.9z"/>
</svg>
