<?xml version="1.0" encoding="utf-8"?>
<!-- Generator: Adobe Illustrator 26.0.1, SVG Export Plug-In . SVG Version: 6.00 Build 0)  -->
<svg version="1.1" id="Capa_1" xmlns="http://www.w3.org/2000/svg" xmlns:xlink="http://www.w3.org/1999/xlink" x="0px" y="0px"
	 viewBox="0 0 150 150" style="enable-background:new 0 0 150 150;" xml:space="preserve">
<g>
	<g>
		<path d="M89.3,111.5H60.7c-10.4,0-18.9-8.5-18.9-18.9V64c0-10.4,8.5-18.9,18.9-18.9h28.6c10.4,0,18.9,8.5,18.9,18.9v28.6
			C108.2,103,99.7,111.5,89.3,111.5z M60.7,50.8c-7.3,0-13.2,5.9-13.2,13.2v28.6c0,7.3,5.9,13.2,13.2,13.2h28.6
			c7.3,0,13.2-5.9,13.2-13.2V64c0-7.3-5.9-13.2-13.2-13.2H60.7z"/>
	</g>
	<g>
		<path d="M75,95.3c-9.4,0-17-7.6-17-17c0-9.4,7.6-17,17-17s17,7.6,17,17C92,87.7,84.4,95.3,75,95.3z M75,67
			c-6.2,0-11.3,5.1-11.3,11.3S68.8,89.6,75,89.6s11.3-5.1,11.3-11.3S81.2,67,75,67z"/>
	</g>
	<g>
		<path d="M96.8,60.3c0,2.3-1.8,4.1-4.1,4.1c-2.3,0-4.1-1.8-4.1-4.1s1.8-4.1,4.1-4.1C95,56.2,96.8,58.1,96.8,60.3z"/>
	</g>
</g>
</svg>
