<?xml version="1.0" encoding="utf-8"?>
<!-- Generator: Adobe Illustrator 26.0.1, SVG Export Plug-In . SVG Version: 6.00 Build 0)  -->
<svg version="1.1" id="Capa_1" xmlns="http://www.w3.org/2000/svg" xmlns:xlink="http://www.w3.org/1999/xlink" x="0px" y="0px"
	 viewBox="0 0 150 150" style="enable-background:new 0 0 150 150;" xml:space="preserve">
<g>
	<path d="M38.2,115.4c0.5-1.8,0.9-3.6,1.4-5.4c0.3-1.2,0.6-2.4,0.9-3.6c0.2-0.9,0.8-1.3,1.5-1.1c0.7,0.2,1,0.8,0.8,1.7
		c-0.5,2.3-1.1,4.5-1.7,7c3.3-1.2,6.5-2.5,9.7-3.7c-0.9-1-1.8-2-2.6-3.1c-2.2-3-3.3-6.5-3.6-10.2c-0.1-1.9-0.3-3.7-0.4-5.6
		c-0.1-0.9,0.4-1.5,1.1-1.5c0.7,0,1.2,0.5,1.3,1.4c0.3,2.7,0.4,5.4,0.8,8.1c0.6,3.9,2.7,7.1,5.8,9.6c0.2,0.1,0.5,0.1,0.8,0
		c3.8-1.4,7.5-2.8,11.3-4.3c0.6-0.2,1.1-0.4,1.8-0.7c-0.4-0.2-0.6-0.3-0.9-0.5C55.7,98.1,49.3,89.5,47,77.9c0-0.1,0-0.3,0-0.4
		c-0.1-0.9,0.3-1.5,1-1.6c0.7-0.1,1.2,0.4,1.3,1.3c2.3,12.1,9.2,20.6,20.5,25.5c0.3,0.1,0.7,0.2,1,0.1c2.5-0.9,5-1.9,7.5-2.8
		c0.1,0,0.2-0.1,0.3-0.2c-3.7-1.3-6.9-3.3-9.9-5.7C61.8,88.9,56.1,82.6,52.1,75c-1.2-2.2-2-4.6-2-7.2c0.1-3.7,3.1-5.1,5.8-4.8
		c0.8,0.1,1.2,0.7,1.1,1.4c-0.1,0.7-0.7,1.1-1.4,1c-2.1-0.3-3.5,1-3.1,3.1c0.2,1.3,0.5,2.6,1,3.8c1.5,3.6,3.7,6.8,6.2,9.8
		c4.7,5.7,10.2,10.6,16.8,14.1c1.7,0.9,3.4,1.6,5.3,1.7c3.1,0.3,3.5-1.3,3.2-3.7c-0.1-0.9-0.4-1.7-0.7-2.6c-0.3-0.9,0-1.5,0.7-1.8
		c0.7-0.2,1.3,0.1,1.6,0.9c0.6,1.8,1.2,3.6,0.9,5.6c-0.3,1.8-1.2,3-2.9,3.6c-3.7,1.4-7.4,2.8-11.1,4.2c-11.1,4.2-22.2,8.4-33.2,12.6
		c-1,0.4-1.3,0.3-2-0.6C38.2,116,38.2,115.7,38.2,115.4z"/>
	<path d="M45.6,46.3c0.4,0.4,0.8,0.7,1.1,1.2c0.4,0.7,0.7,1.4,1,2.1c0.2,0.4,0.5,0.6,0.9,0.6c0.9,0.1,1.9,0.2,2.8,0.4
		c1,0.2,1.4,1.3,0.7,2c-0.7,0.7-1.4,1.4-2.1,2.1c-0.2,0.2-0.3,0.6-0.3,0.8c0.1,0.9,0.3,1.7,0.4,2.6c0.1,0.6,0.1,1.1-0.4,1.5
		c-0.5,0.4-1.1,0.2-1.6-0.1c-0.6-0.3-1.3-0.6-1.8-1c-0.7-0.4-1.2-0.4-1.9,0c-0.6,0.4-1.3,0.7-2,1.1c-0.5,0.3-1,0.3-1.4-0.1
		c-0.3-0.3-0.4-0.9-0.4-1.3c0.1-0.9,0.3-1.8,0.4-2.6c0.1-0.4,0-0.8-0.4-1.1c-0.8-0.8-1.6-1.6-2.4-2.3c0-0.3,0-0.6,0-0.8
		c0.3-0.6,0.7-0.8,1.4-0.9c0.4,0,0.8-0.2,1.2-0.2c1.6,0.1,2.4-0.7,2.9-2.2c0.3-0.7,0.6-1.5,1.3-1.9C45.2,46.3,45.4,46.3,45.6,46.3z
		 M45.3,50.2c-0.5,1.7-1.5,2.4-3.3,2.4c1.5,1,1.9,2.2,1.3,3.9c1.4-1.1,2.7-1.1,4.1,0c-0.7-1.7-0.2-2.9,1.2-3.9
		C46.8,52.7,45.8,51.9,45.3,50.2z"/>
	<path d="M64.8,46.3c0.2,0.1,0.3,0.2,0.5,0.2c1,0.5,1.5,1.6,1.3,2.6c-0.3,1.1-1.2,1.8-2.3,1.9c-1.1,0-2.1-0.7-2.3-1.7
		c-0.3-1.1,0.2-2.2,1.2-2.8c0.2-0.1,0.3-0.2,0.5-0.3C63.9,46.3,64.4,46.3,64.8,46.3z"/>
	<path d="M97.7,46.3c0.7,0.6,1,2,0.6,2.8c-0.2,0.4-0.8,0.7-1.1,0.7c-0.4,0-1-0.5-1-0.8c-0.2-0.9-0.4-2,0.6-2.7
		C97,46.3,97.3,46.3,97.7,46.3z"/>
	<path d="M105.7,109.5c-0.2,0.8-0.4,1.6-0.7,2.3c-0.8,1.7-2.1,2.7-4,2.8c-2,0.1-3.5-0.7-4.4-2.4c-0.9-1.7-0.9-3.4,0.2-5
		c0.9-1.4,2.2-2.3,3.9-2.7c0.2,0,0.3-0.1,0.6-0.2c-2.1-2.3-4.6-3.9-7.6-4.6c-0.4-0.1-0.8-0.2-1.2-0.3c-0.8-0.2-1.2-0.7-1.1-1.3
		c0.1-0.7,0.7-1.1,1.5-1c1.8,0.3,3.6,0.9,5.2,1.8c2.8,1.4,4.9,3.5,6.7,6.1c0.2,0.3,0.5,0.6,0.9,0.9c3.3,2.4,4.4,7,2.4,10.6
		c-0.4,0.7-1,1-1.7,0.6c-0.6-0.3-0.8-1-0.5-1.7c0.9-1.8,1-3.7,0-5.5C105.9,109.7,105.8,109.6,105.7,109.5
		C105.7,109.5,105.7,109.5,105.7,109.5z M103.3,109.1c-0.2-0.7-0.2-1.2-0.4-1.7c-0.2-0.6-0.7-0.8-1.3-0.7c-1.2,0.3-2.2,0.9-2.8,1.9
		c-0.7,1.1-0.4,2.5,0.6,3.2c1.1,0.7,2.6,0.5,3.2-0.6C103,110.6,103.1,109.8,103.3,109.1z"/>
	<path d="M102,69.7c0,0.8-0.4,1.2-1,1.4c-2.6,1.2-5.2,2.5-7.8,3.7c-5.5,2.6-10.9,5.2-16.4,7.8c-0.3,0.1-0.6,0.3-0.8,0.3
		c-0.5,0-1-0.2-1.1-0.8c-0.1-0.4,0.2-0.9,0.3-1.3c0.1-0.2,0.3-0.2,0.5-0.3c8-3.8,16.1-7.7,24.1-11.5c0.5-0.2,1-0.4,1.5-0.1
		C101.7,69.1,101.8,69.5,102,69.7z"/>
	<path d="M67.7,62c0,5.1-1.1,10-3.2,14.7c-0.4,0.9-0.8,1.9-1.2,2.8c-0.4,0.8-1,1.2-1.7,0.9c-0.6-0.3-0.9-1-0.5-1.8
		c0.9-2.4,2-4.7,2.7-7.1c1.7-5.4,1.9-11,0.7-16.6c-0.2-0.9,0.2-1.5,0.9-1.7c0.7-0.1,1.3,0.3,1.5,1.2c0.3,2.5,0.7,5,1,7.4
		C67.9,62,67.8,62,67.7,62z"/>
	<path d="M83.7,87.6c-2.7-0.1-5.6,0.4-8.5,0.9c-0.5,0.1-1,0.2-1.6,0.2c-0.6,0-1-0.4-1.1-1c-0.1-0.6,0.3-1.2,0.9-1.3
		c4.3-0.8,8.5-1.5,12.9-1.2c3.8,0.3,7.6,1,11.2,2.3c0.6,0.2,1,0.6,1,1.3c0,0.6-0.4,1-0.9,1c-0.3,0.1-0.7-0.1-1.1-0.2
		C92.4,88.3,88.3,87.5,83.7,87.6z"/>
	<path d="M90.2,63.4c0,0.9,0,1.8,0,2.7c0,1-0.5,1.5-1.5,1.5c-1.8,0-3.6,0-5.4,0c-1,0-1.5-0.5-1.5-1.4c0-1.8,0-3.6,0-5.5
		c0-1,0.5-1.4,1.5-1.4c1.8,0,3.6,0,5.5,0c1,0,1.4,0.5,1.4,1.5C90.2,61.6,90.2,62.5,90.2,63.4z M84.3,65.1c1.2,0,2.3,0,3.4,0
		c0-1.2,0-2.3,0-3.4c-1.2,0-2.3,0-3.4,0C84.3,62.8,84.3,63.9,84.3,65.1z"/>
	<path d="M80.9,69.8c-0.4,0.5-0.6,0.9-0.9,1.2c-2.9,2.6-5.8,5.2-8.7,7.9c-0.9,0.8-1.7,1.5-2.6,2.3c-0.7,0.6-1.4,0.6-1.9,0.1
		c-0.5-0.5-0.4-1.3,0.3-1.9c3.8-3.4,7.6-6.8,11.3-10.2c0.4-0.4,0.9-0.7,1.5-0.4C80.3,69,80.5,69.4,80.9,69.8z"/>
	<path d="M71.3,59.3c0-2,1.6-3.6,3.5-3.6c2,0,3.5,1.6,3.6,3.5c0,2-1.5,3.6-3.5,3.6C72.9,62.9,71.3,61.2,71.3,59.3z M76,59.3
		c0-0.6-0.5-1.2-1.2-1.1c-0.6,0-1.1,0.5-1.1,1.1c0,0.6,0.5,1.2,1.2,1.1C75.5,60.4,76,59.9,76,59.3z"/>
	<path d="M103.1,88.7c2,0,3.6,1.6,3.6,3.5c0,2-1.6,3.5-3.5,3.5c-2,0-3.6-1.6-3.6-3.5C99.6,90.3,101.1,88.7,103.1,88.7z M103.1,91.1
		c-0.6,0-1.1,0.5-1.2,1.1c0,0.7,0.5,1.2,1.1,1.2c0.6,0,1.2-0.5,1.2-1.2C104.3,91.7,103.7,91.1,103.1,91.1z"/>
	<path d="M100.1,52.2c-1.2,0-1.7-0.4-1.8-1.2c0-0.8,0.6-1.2,1.8-1.2c1.2,0,1.8,0.4,1.8,1.2C101.9,51.8,101.3,52.2,100.1,52.2z"/>
	<path d="M94.2,52.2c-1.1,0-1.7-0.4-1.7-1.2c0-0.8,0.6-1.2,1.7-1.2c0.3,0,0.5,0,0.8,0c0.7,0.1,1.1,0.6,1.1,1.2
		c0,0.6-0.5,1.1-1.1,1.2C94.7,52.2,94.4,52.2,94.2,52.2z"/>
	<path d="M105.1,72c0.9,0,2.2,1.3,2.2,2c0,0.4-0.3,0.8-0.6,1c-0.3,0.2-0.9,0.2-1.2,0c-0.5-0.3-0.9-0.7-1.2-1.2
		c-0.2-0.3-0.1-0.9,0-1.2C104.4,72.3,104.9,72.1,105.1,72z"/>
	<path d="M103.2,64.7c-0.2,0.4-0.2,1-0.5,1.3c-0.2,0.2-0.8,0.4-1.2,0.3c-1.1-0.4-0.8-1.3-0.8-2.2c0-0.7,0.3-1.1,0.9-1.3
		c0.6-0.2,1.3,0.2,1.4,0.9c0.1,0.3,0,0.6,0.1,1C103.2,64.7,103.2,64.7,103.2,64.7z"/>
	<path d="M99.9,66.6c-0.3,0.3-0.4,0.8-0.8,0.9c-0.3,0.2-0.8,0.1-1.1,0c-0.5-0.3-0.9-0.7-1.2-1.2c-0.2-0.3-0.2-0.9,0-1.1
		c0.2-0.3,0.7-0.6,1-0.6C98.5,64.5,99.7,65.8,99.9,66.6z"/>
	<path d="M103.1,75.2c0,1.2-0.4,1.7-1.2,1.8c-0.8,0-1.2-0.6-1.2-1.8c0-0.2,0-0.4,0-0.6c0-0.7,0.6-1.2,1.2-1.2c0.6,0,1.1,0.5,1.2,1.2
		C103.1,74.8,103.1,75,103.1,75.2z"/>
	<path d="M107.2,71.1c-1.2,0-1.7-0.4-1.8-1.2c0-0.8,0.6-1.2,1.8-1.2c0.2,0,0.4,0,0.5,0c0.7,0,1.2,0.5,1.2,1.2c0,0.7-0.5,1.1-1.2,1.2
		C107.6,71.1,107.4,71.1,107.2,71.1z"/>
	<path d="M98.4,54c0,0.1,0,0.1,0,0.2c0,1-0.4,1.5-1.2,1.5c-0.8,0-1.2-0.5-1.2-1.5c0-0.3,0-0.6,0-0.8c0-0.7,0.5-1.2,1.2-1.2
		c0.7,0,1.1,0.5,1.2,1.2C98.4,53.6,98.4,53.8,98.4,54C98.4,54,98.4,54,98.4,54z"/>
	<path d="M107.3,65.5c0,1-1.2,2.3-1.9,2.2c-0.4,0-0.8-0.3-1.1-0.6c-0.3-0.4-0.3-0.9,0.1-1.3c0.3-0.4,0.7-0.8,1.1-1
		c0.3-0.2,0.9-0.2,1.2-0.1C106.9,64.8,107.1,65.3,107.3,65.5z"/>
</g>
</svg>
